<svg width="15" height="14" viewBox="0 0 15 14" fill="none" xmlns="http://www.w3.org/2000/svg">
<path d="M8.53305 13.0183C8.07172 13.0183 7.82375 12.7588 7.82375 12.309V0.97188C7.82375 0.516318 8.07172 0.256821 8.53305 0.256821H9.9574C10.4187 0.256821 10.6667 0.516318 10.6667 0.97188V2.34433C10.7705 2.1944 10.9435 2.09637 11.1915 2.06753L12.1141 1.9349C12.5754 1.87147 12.8465 2.1079 12.8984 2.5577L13.9998 12.1245C14.0517 12.58 13.8326 12.8568 13.3828 12.9145L12.4543 13.0471C11.9988 13.1048 11.7277 12.8684 11.6758 12.4186L10.6667 3.69372V12.309C10.6667 12.7588 10.4187 13.0183 9.9574 13.0183H8.53305ZM0.921132 13.0183C0.459804 13.0183 0.21184 12.7588 0.21184 12.309V2.56923C0.21184 2.11367 0.459804 1.85417 0.921132 1.85417H2.01102C2.46658 1.85417 2.72031 2.11367 2.72031 2.56923V12.309C2.72031 12.7588 2.46658 13.0183 2.01102 13.0183H0.921132ZM4.1043 13.0183C3.64297 13.0183 3.38924 12.7588 3.38924 12.309V4.53564C3.38924 4.08584 3.64297 3.82635 4.1043 3.82635H6.43977C6.9011 3.82635 7.14906 4.08584 7.14906 4.53564V12.309C7.14906 12.7588 6.9011 13.0183 6.43977 13.0183H4.1043ZM4.65212 5.88502H5.90348C6.10531 5.88502 6.25524 5.72933 6.25524 5.52749C6.25524 5.33143 6.10531 5.17573 5.90348 5.17573H4.65212C4.44453 5.17573 4.28883 5.33143 4.28883 5.52749C4.28883 5.72933 4.44453 5.88502 4.65212 5.88502ZM4.65212 11.6747H5.90348C6.10531 11.6747 6.25524 11.519 6.25524 11.3172C6.25524 11.1211 6.10531 10.9654 5.90348 10.9654H4.65212C4.44453 10.9654 4.28883 11.1211 4.28883 11.3172C4.28883 11.519 4.44453 11.6747 4.65212 11.6747Z" fill="white"/>
</svg>
