<svg width="15" height="19" viewBox="0 0 15 19" fill="none" xmlns="http://www.w3.org/2000/svg">
<path d="M7.47173 3.22871C7.15346 3.22871 6.89746 2.96579 6.89746 2.65444V1.15995C6.89746 0.841675 7.15346 0.585674 7.47173 0.585674C7.79 0.585674 8.046 0.841675 8.046 1.15995V2.65444C8.046 2.96579 7.79 3.22871 7.47173 3.22871ZM10.6683 4.56407C10.4538 4.34266 10.4469 3.98288 10.6683 3.76147L11.7338 2.68903C11.9621 2.46763 12.3219 2.46763 12.5364 2.68903C12.7578 2.91044 12.7647 3.27714 12.5364 3.49855L11.4847 4.56407C11.2564 4.79239 10.8828 4.78547 10.6683 4.56407ZM4.17831 18.4089C2.17182 18.4089 0.552783 16.7898 0.552783 14.7972C0.552783 13.7455 0.988676 12.8253 1.81203 12.078C1.96425 11.9397 1.99192 11.8636 1.99192 11.656L1.985 5.40126C1.985 3.99671 2.87755 3.03498 4.17831 3.03498C5.46523 3.03498 6.35086 3.99671 6.35086 5.40126L6.34394 11.656C6.34394 11.8636 6.37853 11.9397 6.52383 12.078C7.35411 12.8253 7.78308 13.7455 7.78308 14.7972C7.78308 16.7898 6.17097 18.4089 4.17831 18.4089ZM4.17831 17.4056C5.60361 17.4056 6.77291 16.2294 6.77291 14.7972C6.77291 13.9323 6.3647 13.1505 5.63129 12.6592C5.4168 12.5139 5.33377 12.3825 5.33377 12.0988V5.44277C5.33377 4.6125 4.85637 4.05207 4.17831 4.05207C3.48642 4.05207 3.00901 4.6125 3.00901 5.44277V12.0988C3.00901 12.3825 2.92598 12.5139 2.71149 12.6592C1.97809 13.1505 1.56987 13.9323 1.56987 14.7972C1.56987 16.2294 2.73225 17.4056 4.17831 17.4056ZM7.47173 11.1855C7.36102 11.1855 7.25724 11.1786 7.15346 11.1509L7.16038 5.44277C7.16038 5.06223 7.11194 4.70937 7.01508 4.38417C7.16729 4.34958 7.31259 4.32882 7.47173 4.32882C9.37444 4.32882 10.8897 5.85099 10.8897 7.76062C10.8897 9.66333 9.37444 11.1855 7.47173 11.1855ZM4.17139 16.4716C3.24425 16.4716 2.49701 15.7243 2.49701 14.7903C2.49701 14.1399 2.86371 13.6071 3.39647 13.3165C3.61788 13.1989 3.69398 13.1159 3.69398 12.7769V6.03088C3.69398 5.69877 3.90155 5.48429 4.17139 5.48429C4.43431 5.48429 4.6488 5.69877 4.6488 6.03088V12.7769C4.6488 13.1159 4.72491 13.1989 4.94631 13.3165C5.47907 13.6071 5.84578 14.1399 5.84578 14.7903C5.84578 15.7174 5.09853 16.4716 4.17139 16.4716ZM12.5572 8.33489C12.2458 8.33489 11.9829 8.07197 11.9829 7.76062C11.9829 7.44235 12.2458 7.18635 12.5572 7.18635H14.0516C14.363 7.18635 14.619 7.44235 14.619 7.76062C14.619 8.07197 14.363 8.33489 14.0516 8.33489H12.5572ZM11.7338 12.8391L10.6683 11.7736C10.4469 11.5522 10.4469 11.1855 10.6683 10.9641C10.8897 10.7427 11.2495 10.7496 11.4709 10.9641L12.5364 12.0296C12.7647 12.2441 12.7578 12.6108 12.5364 12.8322C12.3219 13.0536 11.9621 13.0605 11.7338 12.8391Z" fill="white"/>
</svg>
