<svg width="9" height="15" viewBox="0 0 9 15" fill="none" xmlns="http://www.w3.org/2000/svg">
<path d="M2.01542 14.7334C0.890932 14.7334 0.152807 13.9895 0.152807 12.8419V6.3026C0.152807 5.15504 0.890932 4.41115 2.01542 4.41115H2.24608V3.57499H2.17112C1.54833 3.57499 1.1735 3.1944 1.1735 2.55431V1.94881C1.1735 1.30872 1.54833 0.928125 2.17112 0.928125H6.03474C6.6633 0.928125 7.03813 1.30872 7.03813 1.94881V2.55431C7.03813 3.1944 6.6633 3.57499 6.03474 3.57499H5.96554V4.41115H6.19621C7.32069 4.41115 8.05882 5.15504 8.05882 6.3026V12.8419C8.05882 13.9895 7.32069 14.7334 6.19621 14.7334H2.01542ZM1.88279 9.99322C1.88279 10.247 2.05002 10.4027 2.29222 10.4027H3.27254V11.3772C3.27254 11.6252 3.42824 11.7924 3.68197 11.7924H4.52389C4.77762 11.7924 4.93332 11.6252 4.93332 11.3772V10.4027H5.91364C6.15007 10.4027 6.32884 10.247 6.32884 9.99322V9.1513C6.32884 8.89757 6.15007 8.74187 5.91364 8.74187H4.93332V7.76731C4.93332 7.51935 4.77762 7.35789 4.52389 7.35789H3.68197C3.42824 7.35789 3.27254 7.51935 3.27254 7.76731V8.74187H2.29222C2.05002 8.74187 1.88279 8.89757 1.88279 9.1513V9.99322Z" fill="white"/>
</svg>
