<svg width="17" height="16" viewBox="0 0 17 16" fill="none" xmlns="http://www.w3.org/2000/svg">
<path d="M0.264331 7.70484C0.264331 7.54571 0.333521 7.37965 0.485737 7.25511L7.69528 1.20104C8.2142 0.765142 8.85074 0.765142 9.36274 1.20104L12.8914 4.16234V2.85466C12.8914 2.55023 13.0921 2.3565 13.3896 2.3565H14.1299C14.4343 2.3565 14.6281 2.55023 14.6281 2.85466V5.62224L16.5654 7.25511C16.7107 7.37965 16.7799 7.51803 16.7799 7.7256C16.7799 8.05771 16.5169 8.25836 16.1917 8.25836C15.998 8.25836 15.8389 8.15458 15.7005 8.03695L8.77463 2.22504C8.62242 2.08666 8.43561 2.08666 8.28339 2.22504L1.35752 8.03695C1.21223 8.15458 1.05309 8.25836 0.85936 8.25836C0.485737 8.25836 0.264331 7.98852 0.264331 7.70484ZM2.42304 13.8765V8.39674L8.11042 3.62958C8.36642 3.4151 8.67777 3.40818 8.94069 3.62958L14.6281 8.39674V13.8765C14.6281 14.8383 14.0538 15.4056 13.0782 15.4056H3.9798C3.00423 15.4056 2.42304 14.8383 2.42304 13.8765ZM10.3037 14.2917V9.71826C10.3037 9.39999 10.0962 9.19242 9.77788 9.19242H7.2663C6.94803 9.19242 6.73354 9.39999 6.73354 9.71826V14.2917H10.3037Z" fill="white"/>
</svg>
