<svg width="10" height="15" viewBox="0 0 10 15" fill="none" xmlns="http://www.w3.org/2000/svg">
<path d="M3.32682 3.44813C2.99235 3.44813 2.79052 3.23477 2.79052 2.87724V2.27174C2.79052 1.91421 2.99235 1.70085 3.32682 1.70085H3.85734C3.89771 1.04922 4.43977 0.518696 5.1087 0.518696C5.77762 0.518696 6.31968 1.04922 6.36005 1.70085H6.89058C7.22504 1.70085 7.42687 1.91421 7.42687 2.27174V2.87724C7.42687 3.23477 7.22504 3.44813 6.89058 3.44813H3.32682ZM5.1087 2.24868C5.38549 2.24868 5.61039 2.01801 5.61039 1.74698C5.61039 1.46442 5.38549 1.23952 5.1087 1.23952C4.8319 1.23952 4.607 1.46442 4.607 1.74698C4.607 2.01801 4.8319 2.24868 5.1087 2.24868ZM2.04663 14.4912C0.852944 14.4912 0.258984 13.8914 0.258984 12.6805V3.93252C0.258984 2.72154 0.852944 2.12181 1.98896 2.12181H2.1216V2.87724C2.1216 3.60383 2.61176 4.11706 3.32682 4.11706H6.89058C7.60563 4.11706 8.0958 3.60383 8.0958 2.87724V2.12181H8.22843C9.36445 2.12181 9.95841 2.72154 9.95841 3.93252V12.6805C9.95841 13.8914 9.36445 14.4912 8.17076 14.4912H2.04663ZM2.48489 7.07532H7.7325C7.93433 7.07532 8.10733 6.90809 8.10733 6.70626C8.10733 6.49866 7.93433 6.32566 7.7325 6.32566H2.48489C2.28306 6.32566 2.11006 6.49866 2.11006 6.70626C2.11006 6.90809 2.28306 7.07532 2.48489 7.07532ZM2.48489 9.1859H7.7325C7.9401 9.1859 8.10733 9.01867 8.10733 8.81107C8.10733 8.60347 7.9401 8.44201 7.7325 8.44201H2.48489C2.27729 8.44201 2.11006 8.60347 2.11006 8.81107C2.11006 9.01867 2.27729 9.1859 2.48489 9.1859ZM2.48489 11.4118H5.126C5.32783 11.4118 5.49506 11.2388 5.49506 11.037C5.49506 10.8351 5.33359 10.6679 5.126 10.6679H2.48489C2.27729 10.6679 2.11006 10.8351 2.11006 11.037C2.11006 11.2388 2.28306 11.4118 2.48489 11.4118Z" fill="white"/>
</svg>
