<svg width="16" height="12" viewBox="0 0 16 12" fill="none" xmlns="http://www.w3.org/2000/svg">
<path d="M0.318017 9.36567V8.63908H2.33056C3.09175 8.63908 3.53578 8.19505 3.53578 7.43963V4.24493C3.53578 3.48951 3.09175 3.04548 2.33056 3.04548H0.318017V2.32465C0.318017 1.13097 0.92351 0.537006 2.12873 0.537006H7.68773V3.14351C6.30952 3.29921 5.37533 4.3545 5.37533 5.84228C5.37533 7.31853 6.30952 8.37382 7.68773 8.54105V11.1533H2.12873C0.92351 11.1533 0.318017 10.5594 0.318017 9.36567ZM8.50082 11.1533V8.54105C9.89634 8.36805 10.8305 7.31853 10.8132 5.84228C10.8017 4.39486 9.87328 3.33381 8.50082 3.15504V0.537006H14.0944C15.2996 0.537006 15.8994 1.13673 15.8994 2.32465V3.04548H13.8926C13.1256 3.04548 12.6874 3.48951 12.6874 4.24493V7.43963C12.6874 8.19505 13.1256 8.63908 13.8926 8.63908H15.8994V9.36567C15.8994 10.5536 15.2996 11.1533 14.0944 11.1533H8.50082ZM0.318017 7.82599V3.85857H2.31903C2.57276 3.85857 2.72269 4.0085 2.72269 4.268V7.41656C2.72269 7.67606 2.57276 7.82599 2.31903 7.82599H0.318017ZM13.5005 7.41656V4.268C13.5005 4.0085 13.6504 3.85857 13.8984 3.85857H15.8994V7.82599H13.8984C13.6504 7.82599 13.5005 7.67606 13.5005 7.41656ZM6.14228 5.83651C6.14228 4.83889 6.77084 4.10077 7.68773 3.9393V7.75103C6.77084 7.58956 6.14228 6.8399 6.14228 5.83651ZM8.50082 7.75103V3.9393C9.42348 4.095 10.052 4.83889 10.0463 5.83651C10.0405 6.8399 9.41771 7.58956 8.50082 7.75103Z" fill="white"/>
</svg>
