<svg width="10" height="16" viewBox="0 0 10 16" fill="none" xmlns="http://www.w3.org/2000/svg">
<path d="M1.87363 12.5075C0.847177 12.5075 0.258984 11.8039 0.258984 10.8178V6.68319C0.258984 5.14928 0.455048 3.64996 0.691479 2.69847C0.92791 1.71815 1.5853 0.985791 2.61176 0.876225C2.97505 0.835859 3.94384 0.760893 5.1087 0.760893C6.27355 0.760893 7.23657 0.835859 7.60563 0.876225C8.62632 0.985791 9.28948 1.71815 9.52591 2.69847C9.76234 3.64996 9.95841 5.14928 9.95841 6.68319V10.8178C9.95841 11.8039 9.37021 12.5075 8.34376 12.5075H8.0958L9.34715 14.5431C9.49131 14.7795 9.37021 15.0448 9.10495 15.0448H8.78202C8.62056 15.0448 8.52829 14.9871 8.44179 14.8487L8.1131 14.3182H2.12736L1.7929 14.8487C1.7064 14.9871 1.6199 15.0448 1.45844 15.0448H1.13551C0.864477 15.0448 0.726079 14.7853 0.87601 14.5431L2.14466 12.5075H1.87363ZM3.63245 2.55431H6.57918C6.79831 2.55431 6.93671 2.41014 6.93671 2.19678C6.93671 1.98341 6.79831 1.85078 6.57918 1.85078H3.63245C3.41908 1.85078 3.28068 1.98341 3.28068 2.19678C3.28068 2.41014 3.41908 2.55431 3.63245 2.55431ZM5.1087 8.7015C6.13515 8.7015 7.36344 8.65537 8.29186 8.55734C8.63786 8.51697 8.77049 8.29208 8.77049 7.96338V6.63706C8.77049 5.47221 8.64362 4.53225 8.55136 4.12282C8.49369 3.86909 8.33223 3.68456 8.07273 3.65573C7.4384 3.57499 6.63685 3.5231 5.1087 3.52886C3.57478 3.53463 2.77322 3.57499 2.1216 3.65573C1.87363 3.68456 1.71793 3.86909 1.66027 4.12282C1.568 4.53225 1.44114 5.47221 1.44114 6.63706V7.96338C1.44114 8.28631 1.57377 8.51121 1.91977 8.55734C2.54256 8.6323 3.77084 8.68997 5.1087 8.7015ZM7.77863 11.3022C8.22266 11.3022 8.57442 10.962 8.57442 10.5065C8.57442 10.0567 8.22843 9.71066 7.77863 9.71066C7.32307 9.71066 6.97707 10.0567 6.97707 10.5065C6.97707 10.962 7.32307 11.3022 7.77863 11.3022ZM2.42723 11.2965C2.87702 11.2965 3.22302 10.9678 3.22302 10.5065C3.22302 10.0509 2.88855 9.71643 2.42723 9.71643C1.97166 9.71643 1.64297 10.0509 1.64297 10.5065C1.64297 10.9678 1.97166 11.2965 2.42723 11.2965ZM2.66366 13.4532H7.5768L6.99437 12.5075H3.24608L2.66366 13.4532Z" fill="white"/>
</svg>
