<svg width="16" height="16" viewBox="0 0 16 16" fill="none" xmlns="http://www.w3.org/2000/svg">
<path d="M0.646713 9.3935C0.646713 8.68997 0.935043 7.94608 1.5982 7.28292C1.07344 6.73509 0.854311 6.08347 0.854311 5.44337C0.854311 4.06516 1.92113 2.79074 3.24745 2.63504C3.30512 1.30295 4.78713 0.351464 6.20572 0.351464C6.93231 0.351464 7.607 0.576362 8.1087 1.09536C8.61039 0.576362 9.28508 0.351464 10.0117 0.351464C11.4303 0.351464 12.9123 1.30295 12.9699 2.63504C14.2963 2.79074 15.3573 4.06516 15.3573 5.44337C15.3573 6.08347 15.1439 6.73509 14.6192 7.28292C15.2823 7.94608 15.5707 8.68997 15.5707 9.3935C15.5707 10.7832 14.6365 11.7463 13.2871 11.7463C12.8604 11.7463 12.4048 11.6367 11.9147 11.3945C11.5571 11.7174 10.6806 12.173 9.65991 12.2134C9.86174 11.2965 10.4903 10.0278 10.8709 9.33006C10.6114 9.307 10.3923 9.24933 10.1962 9.1686C9.44655 10.6679 8.92179 11.925 8.92179 12.7381C8.92179 13.557 9.02559 14.5892 9.02559 14.9525C9.02559 15.2293 8.66229 15.4023 8.1087 15.4023C7.5551 15.4023 7.19181 15.2293 7.19181 14.9525C7.19181 14.5892 7.2956 13.557 7.2956 12.7381C7.2956 11.8674 6.69011 10.4776 5.99812 9.17437C5.80782 9.2551 5.59446 9.307 5.34649 9.33006C5.72709 10.0278 6.35565 11.2965 6.55748 12.2134C5.53679 12.173 4.66027 11.7174 4.30274 11.3945C3.81258 11.6367 3.35702 11.7463 2.93029 11.7463C1.5809 11.7463 0.646713 10.7832 0.646713 9.3935ZM6.96691 8.11331C6.90348 8.28631 6.82851 8.44777 6.72471 8.59194C7.13991 9.3243 7.39364 9.82599 7.63583 10.3796L7.63007 8.41317C7.3821 8.36127 7.16297 8.25748 6.96691 8.11331ZM9.25048 8.11331C9.04289 8.26324 8.81799 8.36704 8.55849 8.42471L8.58156 10.3738C8.82375 9.83176 9.05442 9.37043 9.48115 8.57464C9.38311 8.43624 9.30815 8.28054 9.25048 8.11331Z" fill="white"/>
</svg>
